<svg xmlns="http://www.w3.org/2000/svg" viewBox="0 0 128 128"><defs><style>.cls-1{fill:#d6e1ea;}.Graphic-Style-3{fill:#a6caff;}.Graphic-Style-5{fill:#fff;}.cls-2{fill:none;stroke:#2a457f;stroke-linecap:round;stroke-linejoin:round;stroke-width:4px;}</style></defs><title>link</title><g id="circles"><circle class="cls-1" cx="64" cy="64" r="54"/></g><g id="icons"><path class="Graphic-Style-3" d="M112,38.281a22.219,22.219,0,0,1-6.531,15.762L86.556,72.956A22.174,22.174,0,0,1,78.2,78.227a22.221,22.221,0,0,0,1.27-7.421c0-.73-.04-1.45-.1-2.18a14.88,14.88,0,0,0,1.53-1.33l18.9-18.913A14.279,14.279,0,1,0,79.615,28.189L60.7,47.092a14.567,14.567,0,0,0-1.33,1.53A14.284,14.284,0,0,0,70.8,71.476c.22,0,.44,0,.65-.02a14.16,14.16,0,0,1-2.84,7.921A22.291,22.291,0,0,1,48.62,59.384c-.07-.73-.11-1.46-.11-2.19a22.192,22.192,0,0,1,6.531-15.752L73.954,22.529A22.288,22.288,0,0,1,112,38.281Z"/><path class="Graphic-Style-5" d="M79.475,70.806a22.267,22.267,0,0,1-6.521,15.752L54.041,105.471a22.275,22.275,0,0,1-31.5,0l-.01-.01a22.275,22.275,0,0,1,0-31.5L41.439,55.044a22.173,22.173,0,0,1,8.331-5.251,22.348,22.348,0,0,0-1.26,7.4c0,.73.04,1.46.11,2.19A14.522,14.522,0,0,0,47.1,60.7l-18.913,18.9a14.286,14.286,0,0,0,20.2,20.2L67.293,80.9a14.522,14.522,0,0,0,1.32-1.52A14.289,14.289,0,0,0,57.2,56.514c-.22,0-.44,0-.66.02a14.192,14.192,0,0,1,2.83-7.911,22.286,22.286,0,0,1,20,20C79.435,69.356,79.475,70.076,79.475,70.806Z"/><path class="cls-2" d="M79.91,27.91c-.1.09-.2.18-.3.28L60.7,47.09a14.564,14.564,0,0,0-1.33,1.53A14.286,14.286,0,0,0,70.8,71.48c.22,0,.44,0,.65-.02a14.157,14.157,0,0,1-2.84,7.92,22.285,22.285,0,0,1-19.99-20c-.07-.73-.11-1.46-.11-2.19a22.189,22.189,0,0,1,6.53-15.75L73.95,22.53A22.276,22.276,0,0,1,108.4,50.4"/><path class="cls-2" d="M102.76,56.76l-16.2,16.2a22.129,22.129,0,0,1-8.36,5.27,22.218,22.218,0,0,0,1.27-7.42c0-.73-.04-1.45-.1-2.18a14,14,0,0,0,1.54-1.33l18.9-18.92A14.285,14.285,0,0,0,89.71,24a14.392,14.392,0,0,0-1.62.09"/><path class="cls-2" d="M67.8,51.2a22.2,22.2,0,0,0-8.43-2.58,14.19,14.19,0,0,0-2.83,7.91c.22-.02.44-.02.66-.02A14.3,14.3,0,0,1,68.61,79.38a14.514,14.514,0,0,1-1.32,1.52L48.39,99.81a14.284,14.284,0,1,1-20.2-20.2L47.1,60.7a14.514,14.514,0,0,1,1.52-1.32c-.07-.73-.11-1.46-.11-2.19a22.346,22.346,0,0,1,1.26-7.4,22.169,22.169,0,0,0-8.33,5.25l-6.7,6.7"/><path class="cls-2" d="M74.38,56.62a22.148,22.148,0,0,1,4.99,12.01c.06.73.1,1.45.1,2.18a22.264,22.264,0,0,1-6.52,15.75L54.04,105.47a22.177,22.177,0,0,1-15.02,6.51"/><path class="cls-2" d="M29.02,109.98a22.141,22.141,0,0,1-6.48-4.51l-.01-.01a22.253,22.253,0,0,1,0-31.5l6.21-6.22"/></g></svg>